<?xml version="1.0" encoding="utf-8"?>
<svg viewBox="0 0 500 500" xmlns="http://www.w3.org/2000/svg">
  <path d="M 250 500 C 211.611 500 173.225 485.355 143.934 456.066 L 43.934 356.066 C -14.645 297.487 -14.645 202.514 43.934 143.935 C 100.532 87.337 191.104 85.422 250 138.191 C 308.898 85.423 399.47 87.339 456.066 143.935 C 514.645 202.514 514.645 297.487 456.066 356.066 L 356.066 456.066 C 326.777 485.355 288.389 500 250 500 Z M 179.245 262.013 C 179.245 229.449 152.847 203.051 120.283 203.051 C 87.719 203.051 61.321 229.449 61.321 262.013 C 61.321 294.577 87.719 320.975 120.283 320.975 C 152.847 320.975 179.245 294.577 179.245 262.013 Z M 438.679 262.013 C 438.679 229.449 412.281 203.051 379.717 203.051 C 347.153 203.051 320.755 229.449 320.755 262.013 C 320.755 294.577 347.153 320.975 379.717 320.975 C 412.281 320.975 438.679 294.577 438.679 262.013 Z M 208.843 209 C 198.899 209 190.841 217.058 190.841 226.998 C 190.841 236.942 198.899 245 208.843 245 C 218.783 245 226.841 236.942 226.841 226.998 C 226.841 217.058 218.783 209 208.843 209 Z M 291.161 209.037 C 281.217 209.037 273.159 217.095 273.159 227.035 C 273.159 236.979 281.217 245.037 291.161 245.037 C 301.101 245.037 309.159 236.979 309.159 227.035 C 309.159 217.095 301.101 209.037 291.161 209.037 Z M 203.661 265.526 C 199.217 268.249 197.823 274.056 200.545 278.5 C 211.949 295.681 231.878 306.105 249.84 306.105 C 258.902 306.105 269.168 303.619 277.366 299.2 C 281.46 296.994 285.838 293.868 289.368 290.545 C 292.874 287.243 297.559 280.437 297.559 280.437 C 297.972 279.996 297.559 280.437 297.559 280.437 C 301.351 276.866 301.53 270.896 297.959 267.102 C 294.387 263.309 288.417 263.13 284.623 266.702 C 284.623 266.702 284.209 267.143 284.623 266.702 C 284.623 266.702 279.06 274.334 276.434 276.807 C 273.83 279.26 271.466 280.947 268.415 282.59 C 262.325 285.873 256.683 287.237 249.84 287.237 C 235.989 287.237 224.104 282.26 216.632 268.641 C 213.91 264.198 208.102 262.803 203.659 265.526 L 203.661 265.526 Z" style="fill-opacity: 1; fill-rule: nonzero; stroke: none;" id="path26">
    <title>Prami</title>
  </path>
</svg>